# xmcd
#
# Track frame offsets:
# 150
# 21977
# 46000
# 66507
# 89825
# 104620
# 125242
# 144125
# 162725
# 180423
# 198449
# 221305
# 239187
# 259918
#
# Disc length: 3786 seconds
#
# Revision: 1
# Processed by: cddbd v1.4PL0 Copyright (c) Steve Scherf et al.
# Submitted via: CedeCatalogueitor 2.5 http://usuarios.lycos.es/kakasboy
#
DISCID=db0ec80e
DTITLE=Graham Foster - The Major Blues Band
DYEAR=1993
DGENRE=
TTITLE0=Solid Ground
TTITLE1=Count Me Out
TTITLE2=Meanest Man
TTITLE3=Discover Me
TTITLE4=Twilight Zone
TTITLE5=When Love Left Town
TTITLE6=Angeline
TTITLE7=Delta Girl
TTITLE8=Brighttening Up The Blues
TTITLE9=Zero Hour
TTITLE10=The Temptress
TTITLE11=Mind
TTITLE12=Angeline
TTITLE13=As The Years Go Passing By
EXTD=
EXTT0=
EXTT1=
EXTT2=
EXTT3=
EXTT4=
EXTT5=
EXTT6=
EXTT7=
EXTT8=
EXTT9=
EXTT10=
EXTT11=
EXTT12=
EXTT13=
PLAYORDER=
